<svg width="89" height="89" viewBox="0 0 89 89" fill="none" xmlns="http://www.w3.org/2000/svg">
<g clip-path="url(#clip0_14_96)">
<path d="M0.875 44.5C0.875 20.1995 20.5745 0.5 44.875 0.5C69.1755 0.5 88.875 20.1995 88.875 44.5C88.875 68.8005 69.1755 88.5 44.875 88.5C20.5745 88.5 0.875 68.8005 0.875 44.5Z" fill="#763243"/>
<path d="M51.9949 68.216L56.8988 92.7357H17.3609L27.4752 67.2966C15.6565 60.6934 11.5572 55.2617 13.3764 44.3094C12.1504 41.8574 12.082 31.3331 13.3764 24.6937C15.1421 15.6369 17.1418 9.89509 23.1843 -1.97142C24.835 -5.21323 25.7109 -5.2557 27.4752 -1.97142C32.7706 7.88598 35.2611 13.9813 36.9766 24.6937C40.5471 24.3124 42.5624 24.2495 46.1714 24.3872C49.1842 11.8332 51.8987 5.90496 55.3663 -1.97142C56.8988 -5.34286 58.1248 -5.34286 59.9637 -1.97142C67.3385 12.6713 68.8521 29.5976 67.3196 40.325C70.1767 56.2749 67.5312 62.7878 51.9949 68.216Z" fill="#020202"/>
<path d="M62.4157 43.6964C62.7221 48.9068 59.3454 52.7677 55.3662 52.8913C50.9404 52.9412 47.704 49.8263 48.3169 43.6964C48.9298 37.5665 51.9948 34.5015 55.3662 34.5015C59.0902 34.5015 62.1093 38.486 62.4157 43.6964Z" fill="#FF2056"/>
<ellipse cx="53.8338" cy="44.3094" rx="2.14547" ry="3.67795" fill="black"/>
<path d="M38.2174 43.6964C38.5239 49.8263 34.846 52.5329 30.2485 52.5848C25.8227 52.6347 21.0387 49.8263 21.3452 43.6964C21.6517 37.5665 26.8309 34.5015 30.5549 34.5015C34.2789 34.5015 37.9109 37.5665 38.2174 43.6964Z" fill="#FF2056"/>
<ellipse cx="31.7661" cy="43.6964" rx="2.14547" ry="3.67795" fill="black"/>
<rect x="41.8805" y="49.8263" width="4.29001" height="1.83858" rx="0.919289" fill="#3D3636"/>
<path d="M8.61023 68.2597C13.0488 65.6411 15.8583 64.1945 20.5433 62.131C20.9275 61.9617 21.0241 61.4585 20.7273 61.1617C20.547 60.9814 20.2709 60.9363 20.0422 61.049C15.3052 63.3837 12.5346 64.8341 8.06839 67.3162C7.79088 67.4704 7.70361 67.8291 7.87972 68.0932C8.04018 68.3339 8.36109 68.4067 8.61023 68.2597Z" fill="black"/>
<path d="M5.77291 61.9858C10.1515 60.7842 12.5704 60.1325 16.7465 59.2204C17.0901 59.1454 17.1764 58.6939 16.8838 58.4988C16.7967 58.4408 16.6887 58.4196 16.586 58.4396C12.1305 59.306 9.55095 59.8908 5.49782 60.9771C5.15249 61.0697 4.99961 61.4743 5.19792 61.7718C5.32302 61.9595 5.55542 62.0455 5.77291 61.9858Z" fill="black"/>
<path d="M4.50501 55.6322L14.1414 55.3646C14.5354 55.3536 14.8182 54.9808 14.7226 54.5984C14.6524 54.3174 14.3961 54.1231 14.1066 54.1314L4.47048 54.4067C4.13889 54.4162 3.875 54.6877 3.875 55.0195C3.875 55.3647 4.15993 55.6418 4.50501 55.6322Z" fill="black"/>
<path d="M73.9857 67.4339C69.8357 65.6085 67.1402 64.6194 62.4317 63.195C62.1482 63.1092 62.0567 62.7516 62.2661 62.5421C62.3594 62.4488 62.4952 62.4091 62.6243 62.4363C67.5634 63.4758 70.2901 64.4493 74.4835 66.3215C74.8729 66.4953 74.9664 67.0056 74.6648 67.3072C74.4865 67.4855 74.2165 67.5355 73.9857 67.4339Z" fill="black"/>
<path d="M79.0864 60.7674C77.1506 59.8804 74.6439 59.3876 66.2179 59.0498C65.9386 59.0386 65.8018 58.7 65.9995 58.5023C66.0597 58.4421 66.1433 58.4083 66.2285 58.4085C73.4065 58.4268 76.7809 58.5066 79.5863 59.7972C79.7712 59.8823 79.8859 60.0693 79.8859 60.2728C79.8859 60.6777 79.4545 60.9361 79.0864 60.7674Z" fill="black"/>
<path d="M79.2542 53.7693C75.8606 53.5847 69.7749 53.7942 67.531 54.1805C67.1989 54.2377 66.7066 53.8941 66.7066 53.5571C66.7066 53.3539 66.8632 53.1843 67.0658 53.1671C71.7516 52.7693 74.5807 52.6179 79.2946 52.5879C79.6201 52.5858 79.8859 52.8494 79.8859 53.1749C79.8859 53.5177 79.5965 53.7879 79.2542 53.7693Z" fill="black"/>
</g>
<defs>
<clipPath id="clip0_14_96">
<path d="M0.875 44.5C0.875 20.1995 20.5745 0.5 44.875 0.5C69.1755 0.5 88.875 20.1995 88.875 44.5C88.875 68.8005 69.1755 88.5 44.875 88.5C20.5745 88.5 0.875 68.8005 0.875 44.5Z" fill="white"/>
</clipPath>
</defs>
</svg>
